[h264 @ 0x55f7cbdc5280] Reinit context to 720x1280, pix_fmt: yuv420p
Input #0, mov,mp4,m4a,3gp,3g2,mj2, from '/var/www/html/project/media/video/original/lv_0_20220622212125.mp4':
  Metadata:
    major_brand     : isom
    minor_version   : 512
    compatible_brands: isomiso2avc1mp41
    Hw              : 1
                    : 
    LvMetaInfo      : {"data":{"appVersion":"6.1.0","capabilityName":"","ccTtVid":"","draftInfo":{"adjust":0,"aiMatting":0,"audioToText":0,"chroma":0,"coverTemplateId":"","curveSpeed":0,"faceEffectId":"","filterId":"","gameplayAlgorithm":"","graphs":0,"keyframe":0,"mask":0,"mi
    bitRate         : 4000000
                    : 
    copyright       : 343c1c2cbf32819ce3f46c0eb8c71b7e
    maxrate         : 30000000
                    : 
    te_is_reencode  : 1
                    : 
    encoder         : bytevehwavc
  Duration: 00:00:29.98, start: 0.000000, bitrate: 3944 kb/s
    Stream #0:0(und): Video: h264 (High), 1 reference frame (avc1 / 0x31637661), yuv420p(tv, bt709, left), 720x1272 (720x1280), 3813 kb/s, 25 fps, 25 tbr, 1000k tbn, 2000k tbc (default)
    Metadata:
      handler_name    : VideoHandler
    Stream #0:1(und): Audio: aac (LC) (mp4a / 0x6134706D), 44100 Hz, stereo, fltp, 128 kb/s (default)
    Metadata:
      handler_name    : SoundHandler
Input #1, png_pipe, from '/var/www/html/project/static/images/templates/logo_vertical.png':
  Duration: N/A, bitrate: N/A
    Stream #1:0: Video: png, 1 reference frame, rgba(pc), 1920x1080 [SAR 2835:2835 DAR 16:9], 25 tbr, 25 tbn, 25 tbc
[h264 @ 0x55f7cbe29040] Reinit context to 1280x720, pix_fmt: yuv420p
Input #2, mov,mp4,m4a,3gp,3g2,mj2, from '/var/www/html/project/static/images/templates/Codino.mp4':
  Metadata:
    major_brand     : mp42
    minor_version   : 1
    compatible_brands: isommp41mp42
    creation_time   : 2021-07-11T07:02:58.000000Z
  Duration: 00:00:02.00, start: 0.000000, bitrate: 1007 kb/s
    Stream #2:0(ita): Audio: aac (LC) (mp4a / 0x6134706D), 44100 Hz, stereo, fltp, 102 kb/s (default)
    Metadata:
      creation_time   : 2021-07-11T07:02:58.000000Z
      handler_name    : Core Media Audio
    Stream #2:1(und): Video: h264 (High), 1 reference frame (avc1 / 0x31637661), yuv420p(tv, bt709, progressive, left), 1280x720 [SAR 1:1 DAR 16:9], 813 kb/s, 25 fps, 25 tbr, 25k tbn, 50k tbc (default)
    Metadata:
      creation_time   : 2021-07-11T07:02:58.000000Z
      handler_name    : Core Media Video
[Parsed_scale_1 @ 0x55f7cbe12600] w:1280 h:720 flags:'bilinear' interl:0
[Parsed_scale_4 @ 0x55f7cbe58e00] w:-1 h:720 flags:'bilinear' interl:0
[Parsed_scale_7 @ 0x55f7cbe57a40] w:1280 h:720 flags:'bilinear' interl:0
[Parsed_scale_9 @ 0x55f7cbe73740] w:1280 h:720 flags:'bilinear' interl:0
Stream mapping:
  Stream #0:0 (h264) -> split
  Stream #0:1 (aac) -> concat:in0:a0
  Stream #1:0 (png) -> scale
  Stream #2:0 (aac) -> concat:in1:a0
  Stream #2:1 (h264) -> scale
  concat:out:v0 -> Stream #0:0 (libx264)
  concat:out:a0 -> Stream #0:1 (aac)
Press [q] to stop, [?] for help
[h264 @ 0x55f7cbe11340] Reinit context to 720x1280, pix_fmt: yuv420p
[h264 @ 0x55f7cc273a80] Reinit context to 1280x720, pix_fmt: yuv420p
[Parsed_scale_1 @ 0x55f7cd06d4c0] w:1280 h:720 flags:'bilinear' interl:0
[Parsed_scale_4 @ 0x55f7cd0771c0] w:-1 h:720 flags:'bilinear' interl:0
[Parsed_scale_7 @ 0x55f7cd07a9c0] w:1280 h:720 flags:'bilinear' interl:0
[Parsed_scale_9 @ 0x55f7cd07c140] w:1280 h:720 flags:'bilinear' interl:0
[graph 0 input from stream 0:0 @ 0x55f7cd080a00] w:720 h:1272 pixfmt:yuv420p tb:1/1000000 fr:25/1 sar:0/1 sws_param:flags=2
[graph 0 input from stream 1:0 @ 0x55f7cd081a80] w:1920 h:1080 pixfmt:rgba tb:1/25 fr:25/1 sar:2835/2835 sws_param:flags=2
[graph 0 input from stream 2:1 @ 0x55f7cd080900] w:1280 h:720 pixfmt:yuv420p tb:1/25000 fr:25/1 sar:1/1 sws_param:flags=2
[graph_0_in_0_1 @ 0x55f7cd07ba40] tb:1/44100 samplefmt:fltp samplerate:44100 chlayout:0x3
[graph_0_in_2_0 @ 0x55f7cd079180] tb:1/44100 samplefmt:fltp samplerate:44100 chlayout:0x3
[Parsed_scale_1 @ 0x55f7cd06d4c0] w:720 h:1272 fmt:yuv420p sar:0/1 -> w:1280 h:720 fmt:yuv420p sar:0/1 flags:0x2
[Parsed_boxblur_2 @ 0x55f7cd076180] luma_radius:36 luma_power:1 chroma_radius:18 chroma_power:1 alpha_radius:36 alpha_power:1 w:1280 chroma_w:640 h:720 chroma_h:360
[Parsed_setsar_3 @ 0x55f7cd075d80] w:1280 h:720 sar:0/1 dar:16/9 -> sar:1/1 dar:16/9
[Parsed_scale_4 @ 0x55f7cd0771c0] w:720 h:1272 fmt:yuv420p sar:0/1 -> w:408 h:720 fmt:yuva420p sar:0/1 flags:0x2
[Parsed_setsar_5 @ 0x55f7cd078240] w:408 h:720 sar:0/1 dar:17/30 -> sar:1/1 dar:17/30
[Parsed_overlay_6 @ 0x55f7cd0795c0] main w:1280 h:720 fmt:yuv420p overlay w:408 h:720 fmt:yuva420p
[Parsed_overlay_6 @ 0x55f7cd0795c0] [framesync @ 0x55f7cd079c28] Selected 1/1000000 time base
[Parsed_overlay_6 @ 0x55f7cd0795c0] [framesync @ 0x55f7cd079c28] Sync level 2
[Parsed_scale_7 @ 0x55f7cd07a9c0] w:1920 h:1080 fmt:rgba sar:2835/2835 -> w:1280 h:720 fmt:yuva420p sar:1/1 flags:0x2
[Parsed_setsar_8 @ 0x55f7cd07b540] w:1280 h:720 sar:1/1 dar:16/9 -> sar:1/1 dar:16/9
[Parsed_overlay_11 @ 0x55f7cd07d940] main w:1280 h:720 fmt:yuv420p overlay w:1280 h:720 fmt:yuva420p
[Parsed_overlay_11 @ 0x55f7cd07d940] [framesync @ 0x55f7cd07da68] Selected 1/1000000 time base
[Parsed_overlay_11 @ 0x55f7cd07d940] [framesync @ 0x55f7cd07da68] Sync level 2
[Parsed_scale_9 @ 0x55f7cd07c140] w:1280 h:720 fmt:yuv420p sar:1/1 -> w:1280 h:720 fmt:yuv420p sar:1/1 flags:0x2
[Parsed_setsar_10 @ 0x55f7cd07cc40] w:1280 h:720 sar:1/1 dar:16/9 -> sar:1/1 dar:16/9
[libx264 @ 0x55f7cbde5f40] using SAR=1/1
[libx264 @ 0x55f7cbde5f40] using cpu capabilities: MMX2 SSE2Fast SSSE3 SSE4.2 AVX FMA3 BMI2 AVX2
[libx264 @ 0x55f7cbde5f40] profile High, level 3.1
[libx264 @ 0x55f7cbde5f40] 264 - core 155 r2917 0a84d98 - H.264/MPEG-4 AVC codec - Copyleft 2003-2018 - http://www.videolan.org/x264.html - options: cabac=1 ref=1 deblock=1:0:0 analyse=0x3:0x113 me=hex subme=2 psy=1 psy_rd=1.00:0.00 mixed_ref=0 me_range=16 chroma_me=1 trellis=0 8x8dct=1 cqm=0 deadzone=21,11 fast_pskip=1 chroma_qp_offset=0 threads=22 lookahead_threads=5 sliced_threads=0 nr=0 decimate=1 interlaced=0 bluray_compat=0 constrained_intra=0 bframes=3 b_pyramid=2 b_adapt=1 b_bias=0 direct=1 weightb=1 open_gop=0 weightp=1 keyint=250 keyint_min=25 scenecut=40 intra_refresh=0 rc_lookahead=10 rc=crf mbtree=1 crf=18.0 qcomp=0.60 qpmin=0 qpmax=69 qpstep=4 ip_ratio=1.40 aq=1:1.00
Output #0, mp4, to '/var/www/html/project/media/video/watermarks/lv_0_20220622212125.mp4':
  Metadata:
    major_brand     : isom
    minor_version   : 512
    compatible_brands: isomiso2avc1mp41
    Hw              : 1
                    : 
    LvMetaInfo      : {"data":{"appVersion":"6.1.0","capabilityName":"","ccTtVid":"","draftInfo":{"adjust":0,"aiMatting":0,"audioToText":0,"chroma":0,"coverTemplateId":"","curveSpeed":0,"faceEffectId":"","filterId":"","gameplayAlgorithm":"","graphs":0,"keyframe":0,"mask":0,"mi
    bitRate         : 4000000
                    : 
    copyright       : 343c1c2cbf32819ce3f46c0eb8c71b7e
    maxrate         : 30000000
                    : 
    te_is_reencode  : 1
                    : 
    encoder         : Lavf58.29.100
    Stream #0:0: Video: h264 (libx264), 1 reference frame (avc1 / 0x31637661), yuv420p(progressive), 1280x720 [SAR 1:1 DAR 16:9], q=-1--1, 25 fps, 12800 tbn, 25 tbc (default)
    Metadata:
      encoder         : Lavc58.54.100 libx264
    Side data:
      cpb: bitrate max/min/avg: 0/0/0 buffer size: 0 vbv_delay: -1
    Stream #0:1: Audio: aac (LC) (mp4a / 0x6134706D), 44100 Hz, stereo, fltp, delay 1024, 128 kb/s (default)
    Metadata:
      encoder         : Lavc58.54.100 aac
[Parsed_overlay_6 @ 0x55f7cd0795c0] [framesync @ 0x55f7cd079c28] Sync level 1
[Parsed_overlay_6 @ 0x55f7cd0795c0] [framesync @ 0x55f7cd079c28] Sync level 0
[Parsed_overlay_11 @ 0x55f7cd07d940] [framesync @ 0x55f7cd07da68] Sync level 0
[Parsed_concat_12 @ 0x55f7cd07ea80] EOF on in0:v0, 1 streams left in segment.
[Parsed_concat_12 @ 0x55f7cd07ea80] EOF on in0:a0, 0 streams left in segment.
[Parsed_concat_12 @ 0x55f7cd07ea80] Segment finished at pts=29960000
[Parsed_concat_12 @ 0x55f7cd07ea80] EOF on in1:a0, 1 streams left in segment.
[Parsed_concat_12 @ 0x55f7cd07ea80] EOF on in1:v0, 0 streams left in segment.
[Parsed_concat_12 @ 0x55f7cd07ea80] Segment finished at pts=31978685
No more output streams to write to, finishing.
frame=  799 fps= 67 q=-1.0 Lsize=    5443kB time=00:00:31.99 bitrate=1393.4kbits/s speed=2.66x    
[AVIOContext @ 0x55f7cbdc3500] Statistics: 0 seeks, 24 writeouts
video:4921kB audio:495kB subtitle:0kB other streams:0kB global headers:0kB muxing overhead: 0.507999%
Input file #0 (/var/www/html/project/media/video/original/lv_0_20220622212125.mp4):
  Input stream #0:0 (video): 749 packets read (14280668 bytes); 749 frames decoded; 
  Input stream #0:1 (audio): 1291 packets read (480072 bytes); 1289 frames decoded (1319936 samples); 
  Total: 2040 packets (14760740 bytes) demuxed
Input file #1 (/var/www/html/project/static/images/templates/logo_vertical.png):
  Input stream #1:0 (video): 1 packets read (93903 bytes); 1 frames decoded; 
  Total: 1 packets (93903 bytes) demuxed
Input file #2 (/var/www/html/project/static/images/templates/Codino.mp4):
  Input stream #2:0 (audio): 89 packets read (26579 bytes); 87 frames decoded (89024 samples); 
  Input stream #2:1 (video): 50 packets read (203365 bytes); 50 frames decoded; 
  Total: 139 packets (229944 bytes) demuxed
Output file #0 (/var/www/html/project/media/video/watermarks/lv_0_20220622212125.mp4):
  Output stream #0:0 (video): 799 frames encoded; 799 packets muxed (5038655 bytes); 
  Output stream #0:1 (audio): 1378 frames encoded (1410260 samples); 1379 packets muxed (506430 bytes); 
  Total: 2178 packets (5545085 bytes) muxed
[AVIOContext @ 0x55f7cbe984c0] Statistics: 2 seeks, 25 writeouts
[libx264 @ 0x55f7cbde5f40] frame I:6     Avg QP:10.71  size: 45793
[libx264 @ 0x55f7cbde5f40] frame P:216   Avg QP:14.80  size: 13776
[libx264 @ 0x55f7cbde5f40] frame B:577   Avg QP:17.50  size:  3098
[libx264 @ 0x55f7cbde5f40] consecutive B-frames:  2.9%  2.3%  0.8% 94.1%
[libx264 @ 0x55f7cbde5f40] mb I  I16..4: 52.3% 26.3% 21.4%
[libx264 @ 0x55f7cbde5f40] mb P  I16..4:  8.2%  9.6%  1.1%  P16..4: 17.3%  9.3%  4.6%  0.0%  0.0%    skip:49.8%
[libx264 @ 0x55f7cbde5f40] mb B  I16..4:  1.0%  0.5%  0.0%  B16..8: 11.3%  4.3%  0.5%  direct: 5.3%  skip:77.1%  L0:38.9% L1:46.0% BI:15.1%
[libx264 @ 0x55f7cbde5f40] 8x8 transform intra:45.2% inter:30.5%
[libx264 @ 0x55f7cbde5f40] coded y,uvDC,uvAC intra: 32.3% 38.3% 6.9% inter: 5.2% 7.7% 0.4%
[libx264 @ 0x55f7cbde5f40] i16 v,h,dc,p: 28% 36%  8% 28%
[libx264 @ 0x55f7cbde5f40] i8 v,h,dc,ddl,ddr,vr,hd,vl,hu: 15% 50% 12%  3%  5%  3%  6%  3%  3%
[libx264 @ 0x55f7cbde5f40] i4 v,h,dc,ddl,ddr,vr,hd,vl,hu: 25% 24% 16%  5%  7%  5%  7%  4%  6%
[libx264 @ 0x55f7cbde5f40] i8c dc,h,v,p: 53% 27% 12%  8%
[libx264 @ 0x55f7cbde5f40] Weighted P-Frames: Y:2.8% UV:0.0%
[libx264 @ 0x55f7cbde5f40] kb/s:1261.07
[aac @ 0x55f7cbe96500] Qavg: 1837.315
[AVIOContext @ 0x55f7cbdcc4c0] Statistics: 34591671 bytes read, 856 seeks
[AVIOContext @ 0x55f7cbe98c80] Statistics: 93903 bytes read, 0 seeks
[AVIOContext @ 0x55f7cbde8480] Statistics: 1530915 bytes read, 42 seeks
